# xmcd
#
# Track frame offsets:
#	150
#	15467
#	35706
#	52616
#	72612
#	90241
#	108009
#	123375
#	142798
#	156121
#	173642
#	191845
#	213347
#	231560
#	250741
#	269671
#	287361
#	306126
#	326580
#
# Disc length: 4687 seconds
#
# Revision: 0
# Processed by: cddbd v1.5.1PL0 Copyright (c) Steve Scherf et al.
# Submitted via: dBpowerAMP V4.0
#
DISCID=03124d13
DTITLE=Simply Red - It's Only Love
DYEAR=2001
DGENRE=Blues
TTITLE0=If You Don't Know Me By Now
TTITLE1=Holding Back The Years
TTITLE2=Say You Love Me
TTITLE3=Air That I Breathe
TTITLE4=It's Only Love
TTITLE5=You've Got It
TTITLE6=Everytime We Say Goodbye
TTITLE7=For Your Babies
TTITLE8=Lady Godiva's Room (Studio Version)
TTITLE9=Your Eyes (Acoustic)
TTITLE10=Thank You
TTITLE11=Remembering The First Time
TTITLE12=Angel
TTITLE13=Never Never Love
TTITLE14=More
TTITLE15=Mellow My Mind
TTITLE16=Stars
TTITLE17=Heaven
TTITLE18=Fairground
EXTD=
EXTT0=
EXTT1=
EXTT2=
EXTT3=
EXTT4=
EXTT5=
EXTT6=
EXTT7=
EXTT8=
EXTT9=
EXTT10=
EXTT11=
EXTT12=
EXTT13=
EXTT14=
EXTT15=
EXTT16=
EXTT17=
EXTT18=
PLAYORDER=
